<svg xmlns="http://www.w3.org/2000/svg" width="31" height="28.082" viewBox="0 0 31 28.082"><defs><style>.a{fill:#f86b00;}</style></defs><path class="a" d="M295.949,241.5a6.745,6.745,0,1,0,6.745,6.745A6.752,6.752,0,0,0,295.949,241.5Zm1.945,7.653h-1.037v1.037a.908.908,0,1,1-1.816,0v-1.037H294a.908.908,0,0,1,0-1.816h1.037V246.3a.908.908,0,0,1,1.816,0v1.037h1.037a.908.908,0,0,1,0,1.816Zm0,0" transform="translate(-271.694 -226.908)"/><path class="a" d="M54.945,13.991A6.745,6.745,0,1,0,48.2,7.246,6.753,6.753,0,0,0,54.945,13.991Zm0,0" transform="translate(-45.282 -0.501)"/><path class="a" d="M17.646,223.583a9.746,9.746,0,0,0-2.546-2.547,8.545,8.545,0,0,1-10.875,0A9.661,9.661,0,0,0,0,229.019v3.4a3.344,3.344,0,0,0,3.34,3.34H15.986a3.325,3.325,0,0,0,2.138-.776,8.545,8.545,0,0,1-.478-11.406Zm0,0" transform="translate(0 -207.683)"/></svg>