<svg xmlns="http://www.w3.org/2000/svg" width="17.233" height="17.233" viewBox="0 0 17.233 17.233"><defs><style>.a{fill:#f86b00;}</style></defs><path class="a" d="M14.176,12.957l-2.751-.688-.234-.936a4.951,4.951,0,0,0,1.389-2.757,1.079,1.079,0,0,0,.778-.9l.18-1.436A1.075,1.075,0,0,0,12.852,5.1l.066-1.352.269-.269a1.657,1.657,0,0,0,.039-2.237A3.017,3.017,0,0,0,10.505,0,4.733,4.733,0,0,0,7.784.719C4.725.783,4.308,2.2,4.308,3.59c0,.322.078,1.048.13,1.486a1.078,1.078,0,0,0-.744,1.161l.18,1.436a1.08,1.08,0,0,0,.864.924,4.982,4.982,0,0,0,1.32,2.673l-.25,1-2.751.688A4.027,4.027,0,0,0,0,16.874a.359.359,0,0,0,.359.359H16.874a.36.36,0,0,0,.359-.36A4.03,4.03,0,0,0,14.176,12.957Z"/></svg>