<svg xmlns="http://www.w3.org/2000/svg" width="15.473" height="15.473" viewBox="0 0 15.473 15.473"><defs><style>.a{fill:#fff;}</style></defs><path class="a" d="M5.963,0H1.128A1.129,1.129,0,0,0,0,1.128v2.9A1.129,1.129,0,0,0,1.128,5.158H5.963A1.129,1.129,0,0,0,7.092,4.029v-2.9A1.129,1.129,0,0,0,5.963,0Zm0,0"/><path class="a" d="M5.963,213.332H1.128A1.129,1.129,0,0,0,0,214.46v6.769a1.129,1.129,0,0,0,1.128,1.128H5.963a1.129,1.129,0,0,0,1.128-1.128V214.46A1.129,1.129,0,0,0,5.963,213.332Zm0,0" transform="translate(0 -206.885)"/><path class="a" d="M283.3,341.332H278.46a1.129,1.129,0,0,0-1.128,1.128v2.9a1.129,1.129,0,0,0,1.128,1.128H283.3a1.129,1.129,0,0,0,1.128-1.128v-2.9A1.129,1.129,0,0,0,283.3,341.332Zm0,0" transform="translate(-268.951 -331.017)"/><path class="a" d="M283.3,0H278.46a1.129,1.129,0,0,0-1.128,1.128V7.9a1.129,1.129,0,0,0,1.128,1.128H283.3A1.129,1.129,0,0,0,284.424,7.9V1.128A1.129,1.129,0,0,0,283.3,0Zm0,0" transform="translate(-268.951)"/></svg>