<svg xmlns="http://www.w3.org/2000/svg" width="17" height="16.591" viewBox="0 0 17 16.591"><defs><style>.a{fill:#1665db;}</style></defs><g transform="translate(0.25 -3.436)"><rect class="a" width="17" height="1" rx="0.5" transform="translate(-0.25 19.027)"/><path class="a" d="M356,280h2.218v6.654H356Z" transform="translate(-343.284 -269.068)"/><path class="a" d="M68,280h2.218v6.654H68Z" transform="translate(-66.691 -269.068)"/><path class="a" d="M148,280h2.218v6.654H148Z" transform="translate(-143.522 -269.068)"/><path class="a" d="M276,280h2.218v6.654H276Z" transform="translate(-266.453 -269.068)"/><path class="a" d="M51.9,119.852l-7.6-3.8a.475.475,0,0,0-.425,0l-7.6,3.8a.475.475,0,0,0-.263.425v1.267a.475.475,0,0,0,.475.475H51.684a.475.475,0,0,0,.475-.475v-1.267a.475.475,0,0,0-.263-.425Zm-7.817-.367a.475.475,0,1,1,.475-.475A.475.475,0,0,1,44.08,119.485Z" transform="translate(-35.958 -112.564)"/></g></svg>