<svg xmlns="http://www.w3.org/2000/svg" width="25.26" height="31.456" viewBox="0 0 25.26 31.456"><defs><style>.a{fill:#fec52f;}</style></defs><g transform="translate(0)"><path class="a" d="M59.84,62.669l-.081,0H42.788a1.7,1.7,0,0,0-1.774,1.616c0,.027,0,.054,0,.081v24.47L43.3,86.707a1.026,1.026,0,0,1,1.342,0l3,2.684,2.96-2.684a1.066,1.066,0,0,1,1.342,0l2.96,2.684,3-2.684a1.026,1.026,0,0,1,1.342,0l2.289,2.131V64.368A1.7,1.7,0,0,0,59.84,62.669ZM46.38,68.591h5.052a.592.592,0,1,1,0,1.184H46.38a.592.592,0,0,1,0-1.184Zm9.788,11.446H46.38a.592.592,0,0,1,0-1.184h9.788a.592.592,0,0,1,0,1.184Zm0-5.131H46.38a.592.592,0,0,1,0-1.184h9.788a.592.592,0,0,1,0,1.184Z" transform="translate(-41.012 -57.935)"/><path class="a" d="M122.453,0H105.482a1.816,1.816,0,0,0-1.776,1.816V3.552h14.011a2.921,2.921,0,0,1,2.96,2.881h0V24.076a1.026,1.026,0,0,1,1.263.039l2.289,2.131V1.816A1.815,1.815,0,0,0,122.453,0Z" transform="translate(-98.97)"/></g></svg>