<svg xmlns="http://www.w3.org/2000/svg" width="21.987" height="17.59" viewBox="0 0 21.987 17.59"><defs><style>.a{fill:#f86b00;}</style></defs><path class="a" d="M8.762,8.989a.55.55,0,0,0,.777,0L9.928,8.6a.55.55,0,0,0,0-.777L8.7,6.6,9.927,5.369a.55.55,0,0,0,0-.777L9.539,4.2a.55.55,0,0,0-.777,0l-2,2a.55.55,0,0,0,0,.777Zm3.3-.388.389.389a.55.55,0,0,0,.777,0l2-2a.55.55,0,0,0,0-.777l-2-2a.55.55,0,0,0-.777,0l-.389.389a.55.55,0,0,0,0,.777L13.287,6.6,12.06,7.823a.55.55,0,0,0,0,.777Zm9.378,5.691h-8.33a1.083,1.083,0,0,1-1.125,1.1H9.894a1.167,1.167,0,0,1-1.126-1.1H.55a.551.551,0,0,0-.55.55v.55a2.205,2.205,0,0,0,2.2,2.2h17.59a2.205,2.205,0,0,0,2.2-2.2v-.55A.551.551,0,0,0,21.438,14.292ZM19.789,1.649A1.654,1.654,0,0,0,18.14,0H3.848A1.654,1.654,0,0,0,2.2,1.649V13.192h17.59Zm-2.2,9.345H4.4V2.2H17.59Z"/></svg>