<svg xmlns="http://www.w3.org/2000/svg" width="34.571" height="29.602" viewBox="0 0 34.571 29.602"><defs><style>.a{fill:#fff;}</style></defs><path class="a" d="M5909.739-5622.023h-6l10.417,18.17,9.706-16.888h7.892a1.172,1.172,0,0,1,.789,1.9c-.868,1.578-3.551,5.761-3.551,5.761a5.875,5.875,0,0,1-4.182,2.051,15.254,15.254,0,0,1-3.395,0s3.079,1.105,3.395,1.816.709,1.893-.474,4.1-3.71,6.551-3.71,6.551a1.076,1.076,0,0,1-1.815,0,31.226,31.226,0,0,0-2.367-2.526s2.445,5.141,3.551,6.787,2.053,2.841,3.867.552a100.276,100.276,0,0,0,6.763-11.612c1.2-1.924.555-2.94.555-2.94l-1.1-1.473a4.038,4.038,0,0,0,4.052-1.795c1.342-2.289,3.728-6.4,3.728-6.4s1.75-3.914-1.611-4.052-18.09,0-18.09,0l-6.214,10.989-4.051-6.937Z" transform="translate(-5903.742 5622.084)"/></svg>