<svg xmlns="http://www.w3.org/2000/svg" width="31" height="30.969" viewBox="0 0 31 30.969"><defs><style>.a{fill:#1665db;}</style></defs><path class="a" d="M8.593,9.078A9.774,9.774,0,0,1,23.46,10.321V9.274a6.1,6.1,0,0,0-6.092-6.092H9.811V.5L0,6.683l7.032,4.431A9.748,9.748,0,0,1,8.593,9.078Zm0,0" transform="translate(0 -0.5)"/><path class="a" d="M148,341.138l-7.032-4.431a9.774,9.774,0,0,1-16.428.792v1.047a6.1,6.1,0,0,0,6.092,6.092h7.557v2.682Zm0,0" transform="translate(-116.998 -316.351)"/><path class="a" d="M124.707,132.9a7.949,7.949,0,1,0,7.949-7.95A7.95,7.95,0,0,0,124.707,132.9Zm4.923-1.292c0-1.123.815-2.068,2.445-2.3v-1.083h1.4v1.064a5.19,5.19,0,0,1,2.018.576l-.706,1.7a4.291,4.291,0,0,0-1.938-.517c-.686,0-.9.2-.9.437,0,.835,3.847.139,3.847,2.7,0,1.074-.775,2.008-2.316,2.276v1.1h-1.4v-1.054a5.849,5.849,0,0,1-2.555-.7l.755-1.709a4.774,4.774,0,0,0,2.3.636c.666,0,.9-.139.9-.378C133.476,133.495,129.63,134.2,129.63,131.607Zm0,0" transform="translate(-117.156 -117.414)"/></svg>