<svg xmlns="http://www.w3.org/2000/svg" width="16.593" height="16.593" viewBox="0 0 16.593 16.593"><defs><style>.a{fill:#1665db;}</style></defs><g transform="translate(0 0)"><g transform="translate(0 0)"><path class="a" d="M16,4.148H13.037V.593A.593.593,0,0,0,12.445,0H.593A.593.593,0,0,0,0,.593v13.63a2.37,2.37,0,0,0,2.37,2.37H14.222a2.37,2.37,0,0,0,2.37-2.37V4.741A.593.593,0,0,0,16,4.148ZM4.741,2.963H8.3a.593.593,0,1,1,0,1.185H4.741a.593.593,0,1,1,0-1.185Zm5.333,11.259H2.963a.593.593,0,1,1,0-1.185h7.111a.593.593,0,1,1,0,1.185Zm0-2.37H2.963a.593.593,0,1,1,0-1.185h7.111a.593.593,0,1,1,0,1.185Zm0-2.37H2.963a.593.593,0,0,1,0-1.185h7.111a.593.593,0,1,1,0,1.185Zm0-2.37H2.963a.593.593,0,1,1,0-1.185h7.111a.593.593,0,1,1,0,1.185Zm5.333,7.111a1.185,1.185,0,0,1-2.37,0V5.333h2.37v8.889Z"/></g></g></svg>