<svg xmlns="http://www.w3.org/2000/svg" width="15.481" height="20.186" viewBox="0 0 15.481 20.186"><defs><style>.a{fill:#1665db;}</style></defs><g transform="translate(-6.992 0)"><path class="a" d="M22.136,2.686c-4.923,0-7.124-2.546-7.145-2.571a.349.349,0,0,0-.517,0c-.021.026-2.2,2.571-7.145,2.571a.336.336,0,0,0-.337.337V9.445a11.383,11.383,0,0,0,4.222,8.925,10.274,10.274,0,0,0,3.423,1.8.338.338,0,0,0,.191,0,10.267,10.267,0,0,0,3.423-1.8,11.385,11.385,0,0,0,4.222-8.925V3.023A.337.337,0,0,0,22.136,2.686Zm-2.692,7.945c0,.324-.283.8-.673.8H17.9a.215.215,0,0,0-.136.033s.018.026.061.069l.6.6a.637.637,0,0,1,0,.9l-.766.766a.651.651,0,0,1-.9,0l-.6-.6a.092.092,0,0,0-.065-.019c-.153,0-.357.154-.357.27v.714a.648.648,0,0,1-.146.5.461.461,0,0,1-.338.135H14.174a.445.445,0,0,1-.335-.137.576.576,0,0,1-.12-.46c0-.025,0-.051,0-.077v-.673c0-.1-.21-.27-.384-.27a.11.11,0,0,0-.07.019l-.6.6a.651.651,0,0,1-.9,0L11,13.038a.637.637,0,0,1,0-.9l.6-.6a.333.333,0,0,0,.027-.331c-.007-.018-.047-.107-.1-.107h-.834a.7.7,0,0,1-.673-.673V9.549c0-.324.283-.8.673-.8h.834a.215.215,0,0,0,.136-.033c0,.009-.02-.028-.061-.069l-.6-.6a.635.635,0,0,1,0-.9l.766-.766a.65.65,0,0,1,.9,0l.6.6a.222.222,0,0,0,.153.047c.155,0,.3-.09.3-.159v-.85a.637.637,0,0,1,.636-.636h.746a.637.637,0,0,1,.636.636v.85a.12.12,0,0,0,.059.09.378.378,0,0,0,.217.069.214.214,0,0,0,.146-.047l.6-.6a.651.651,0,0,1,.9,0l.766.766a.637.637,0,0,1,0,.9l-.6.6a.185.185,0,0,0-.057.085c0-.011.042.017.132.017h.866c.39,0,.673.481.673.8v1.083Z"/><path class="a" d="M26.626,24.982a1.683,1.683,0,1,0,1.683,1.683A1.685,1.685,0,0,0,26.626,24.982Z" transform="translate(-11.91 -16.575)"/></g></svg>