<svg xmlns="http://www.w3.org/2000/svg" width="31.774" height="29.128" viewBox="0 0 31.774 29.128"><defs><style>.a{fill:#35c535;}</style></defs><g transform="translate(0 8.454)"><path class="a" d="M29.185,176.363V157.551H23.823v18.812H22.107V165.541H16.745v10.822H15.028V162.5H9.667v13.866H7.95v-6.721H2.589v6.721H0v1.862H31.774v-1.862Z" transform="translate(0 -157.551)"/></g><g transform="translate(2.188 0)"><path class="a" d="M59.568,21.316a3.08,3.08,0,0,0-2.644,4.663L53.74,29.572a3.074,3.074,0,0,0-3.58.8l-1.683-.723c.01-.1.015-.2.015-.305a3.082,3.082,0,1,0-5.805,1.44l-2.958,2.958a3.084,3.084,0,1,0,1.327,1.306l2.958-2.958a3.074,3.074,0,0,0,3.726-.731l1.683.723c-.01.1-.015.2-.015.305a3.082,3.082,0,1,0,5.726-1.581l3.183-3.593a3.081,3.081,0,1,0,1.251-5.9Z" transform="translate(-35.251 -21.316)"/></g></svg>