<svg xmlns="http://www.w3.org/2000/svg" width="22.18" height="14.466" viewBox="0 0 22.18 14.466"><defs><style>.a{fill:#1665db;}</style></defs><g transform="translate(7.715 0)"><g transform="translate(0 0)"><circle class="a" cx="3.375" cy="3.375" r="3.375"/></g></g><g transform="translate(15.43 3.857)"><g transform="translate(0 0)"><circle class="a" cx="2.411" cy="2.411" r="2.411"/></g></g><g transform="translate(1.997 3.857)"><g transform="translate(0 0)"><circle class="a" cx="2.411" cy="2.411" r="2.411"/></g></g><g transform="translate(4.822 7.715)"><g transform="translate(0 0)"><path class="a" d="M112.934,256a6.276,6.276,0,0,0-6.268,6.268.482.482,0,0,0,.482.482h11.572a.482.482,0,0,0,.482-.482A6.276,6.276,0,0,0,112.934,256Z" transform="translate(-106.666 -256)"/></g></g><g transform="translate(0 9.644)"><g transform="translate(0 0)"><path class="a" d="M5.239,298.771a4.325,4.325,0,0,0-.9-.1A4.345,4.345,0,0,0,0,303.007a.482.482,0,0,0,.482.482H3.946a1.43,1.43,0,0,1-.089-.482A7.187,7.187,0,0,1,5.239,298.771Z" transform="translate(0 -298.667)"/></g></g><g transform="translate(16.941 9.644)"><path class="a" d="M375.663,298.667a4.327,4.327,0,0,0-.9.1,7.187,7.187,0,0,1,1.382,4.235,1.43,1.43,0,0,1-.089.482h3.464a.482.482,0,0,0,.482-.482A4.345,4.345,0,0,0,375.663,298.667Z" transform="translate(-374.763 -298.667)"/></g></svg>